<svg version="1.2" xmlns="http://www.w3.org/2000/svg" viewBox="0 0 1200 2000" width="1200" height="2000">
	<title>sketch1757880014295</title>
	<style>
		.s0 { fill: #030303 } 
	</style>
	<g id="Background">
		<path id="Path 1" fill-rule="evenodd" class="s0" d="m813.75 660.16c3.99-0.09 10.74 0.34 15 0.94 4.26 0.61 11.13 2.21 15.25 3.55 4.13 1.34 11.1 4.22 15.5 6.39 4.4 2.17 10.7 6.35 14 9.28 3.82 3.39 6.96 7.3 8.63 10.75 1.55 3.2 3.24 9.34 4.11 14.93 1.25 8.12 1.27 10.59 0.12 17-0.75 4.13-2.12 9.75-3.06 12.5-0.93 2.75-3.12 7.03-4.85 9.5-1.72 2.48-3.88 5.96-4.79 7.75-0.92 1.79-4.47 6.48-7.91 10.42-3.44 3.95-8.52 9.91-11.3 13.25-2.78 3.35-14.24 15.98-25.46 28.08-11.22 12.1-34.17 35.95-51 53-16.83 17.05-32.88 33.7-35.66 37-2.79 3.3-7.7 10.05-10.92 15-3.22 4.95-7.6 13.05-9.72 18-2.13 4.95-5.22 14.17-6.86 20.5-2.37 9.12-3.1 14.4-3.52 25.5-0.42 11.04-0.18 15.48 1.14 21 0.92 3.85 3.11 9.92 4.86 13.5 2.25 4.59 5.83 9.17 12.19 15.58 5.43 5.49 14.55 13 23 18.96 7.7 5.43 26.37 19.1 41.5 30.38 15.12 11.28 31.5 24.35 36.38 29.04 4.88 4.7 11.68 12.14 15.11 16.54 3.43 4.4 8.4 11.38 11.04 15.5 2.63 4.13 6.92 11.1 9.51 15.5 2.6 4.4 7.21 12.95 10.24 19 3.03 6.05 6.87 14.83 8.52 19.5 1.65 4.67 3.73 12.33 4.61 17 0.89 4.67 1.6 11.88 1.59 16-0.02 4.13-0.72 10.42-1.57 14-0.85 3.58-2.98 9.19-4.74 12.47-1.75 3.29-5.55 8.35-8.44 11.25-2.89 2.9-8.29 6.95-12 8.98-3.71 2.04-10.58 4.93-15.25 6.43-4.67 1.49-13.23 3.42-19 4.28-5.77 0.86-13.42 1.58-17 1.59-3.58 0.01-13.25-0.71-21.5-1.6-9.71-1.04-18.88-1.4-26-1.03-6.05 0.32-17.52 1.48-25.5 2.59-7.98 1.12-26.88 3.38-42 5.03-15.13 1.66-29.98 3.01-33 3.02-3.02 0.01-7.75-0.65-10.5-1.46-2.75-0.8-6.99-3.17-9.43-5.26-2.46-2.11-5.45-6.01-6.74-8.79-1.78-3.86-2.31-6.77-2.32-12.75-0.01-4.51 1.06-12.87 2.56-20 1.41-6.74 4.08-19.9 5.94-29.25 1.85-9.35 3.68-21.28 4.06-26.5 0.44-6.14 0.24-12.15-0.57-17-0.69-4.12-3.85-17.17-7.02-29-3.17-11.83-7.15-25.1-8.84-29.5-1.7-4.4-4.56-10.47-6.37-13.5-1.8-3.03-6.2-9.09-9.78-13.47-3.57-4.39-10.09-11.64-14.49-16.12-5.84-5.95-9.75-8.96-14.5-11.2-3.58-1.68-11-4.2-16.5-5.6-5.5-1.4-12.7-3.63-16-4.97-3.3-1.34-8.7-3.56-12-4.92-3.3-1.37-7.8-2.8-10-3.18-2.2-0.38-5.91-0.21-8.25 0.38-2.34 0.6-5.6 2.21-7.25 3.58-1.65 1.38-3.37 2.39-3.83 2.25-0.45-0.14-6.58-6.33-13.61-13.75-7.03-7.42-16.01-17.77-19.97-23-3.95-5.22-9.01-12.65-11.25-16.5-2.24-3.85-5.12-9.7-6.4-13-1.95-5-2.34-7.83-2.33-17 0.01-9.8 0.35-11.93 3.12-19.5 1.7-4.67 5.15-13.45 7.66-19.5 2.5-6.05 5.73-15.5 9.77-31l6.67-0.69c3.67-0.37 9.15-1.69 12.17-2.93 3.02-1.23 8.43-4.13 12-6.44 3.58-2.31 9.25-6.39 12.6-9.07 3.36-2.68 10.11-8.24 15-12.37 4.89-4.12 13.78-12.22 19.76-18 5.98-5.77 12.89-13.2 15.37-16.5 2.47-3.3 5.97-8.92 7.78-12.5 1.81-3.58 4.07-9.42 5.02-13 1.21-4.49 1.74-10.21 1.72-18.5-0.01-9.47-0.69-15.37-3.23-28-2.6-12.97-3.15-17.81-2.87-25.55 0.32-8.59 0.72-10.29 4-17 2.66-5.42 5.46-9.16 10.25-13.7 4.24-4.02 9.19-7.47 13.85-9.68 3.99-1.88 9.95-4.1 13.25-4.92 3.3-0.82 10.27-2.04 15.5-2.7 6.32-0.8 15.52-0.99 27.5-0.55 9.9 0.37 26.77 0.19 37.5-0.39 10.73-0.57 24.67-1.97 31-3.1 6.33-1.12 16.9-2.93 23.5-4.01 6.6-1.08 18.52-3.28 26.5-4.89 7.98-1.62 16.08-3.11 18-3.31 1.92-0.21 6.76-0.45 10.75-0.54zm-459.25 2.86l48.5 0.11c26.68 0.06 71.23 0.4 99 0.75 49.42 0.62 50.61 0.68 55.5 2.87 2.75 1.23 6.7 3.93 8.78 5.99 2.65 2.65 3.95 4.95 4.37 7.76 0.34 2.24 0.05 5.76-0.66 8-0.7 2.2-2.55 5.8-4.1 8-1.56 2.2-6.33 6.32-10.61 9.15-4.28 2.83-10.48 6.25-13.78 7.6-3.3 1.36-9.83 3.71-14.5 5.22-4.67 1.52-11.42 4.09-15 5.71-3.57 1.62-9.43 4.9-13 7.28-3.57 2.39-8.58 6.52-11.13 9.19-2.55 2.67-6.44 7.55-8.65 10.85-2.21 3.3-8.21 14.55-22.65 44l-0.78 27.25c-0.44 14.99-1.02 27.7-1.29 28.25-0.27 0.55-0.04 4.26 0.52 8.25 0.56 3.99 2.1 9.5 3.42 12.25 1.31 2.75 4.12 6.59 6.23 8.54 2.1 1.95 4.63 3.98 5.61 4.5 1.67 0.9 1.59 1.52-1.35 9.96-1.72 4.95-6.19 16.42-9.94 25.5-3.75 9.08-7.6 19.42-8.55 23-1.09 4.12-1.7 9.98-1.66 16 0.04 6.85 0.67 11.45 2.25 16.5 1.21 3.85 3.56 9.7 5.22 13 1.66 3.3 5.43 9.6 8.37 14 2.95 4.4 8.55 11.83 12.45 16.5 3.9 4.67 12.62 14.35 31.7 34.5l-1 5.5c-0.55 3.03-0.75 10.22-0.44 16 0.31 5.78 1.52 15.22 2.69 21 1.17 5.78 3.43 13.65 5.02 17.5 1.59 3.85 5.42 11.05 8.52 16 3.09 4.95 8.17 11.9 11.28 15.44 3.11 3.54 8.36 8.41 11.66 10.83 3.3 2.42 12.08 7.52 19.5 11.32 7.42 3.81 15.73 8.6 18.45 10.66 2.73 2.06 6.86 6.45 9.19 9.75 2.33 3.3 5.18 8.47 6.34 11.5 1.15 3.03 2.82 9.1 3.7 13.5 1.28 6.42 1.46 11.17 0.9 24-0.39 8.8-1.27 22.08-1.95 29.5-0.73 7.97-1.88 14.73-2.8 16.5-0.86 1.65-3.09 4.3-8.33 8.78l-52-0.68c-28.6-0.37-83.05-0.9-190-1.67l-5.88-2.71c-3.68-1.7-7.7-4.68-10.75-7.97-2.68-2.89-5.65-6.94-6.61-9-1.53-3.31-1.71-6.81-1.48-29.75 0.14-14.3 1.13-130.17 2.21-257.5 1.07-127.33 2.11-245.9 2.3-263.5 0.35-31.52 0.39-32.07 2.78-36.86 1.34-2.67 4.57-6.84 7.18-9.25 2.61-2.41 7.11-5.51 10-6.88zm180.65 130.99c1.84 0.01 4.46 0.58 5.81 1.25 1.35 0.68 3.5 2.82 4.77 4.74 1.63 2.46 2.32 4.92 2.3 8.25-0.02 2.61-0.82 6.41-1.78 8.44-0.96 2.03-3.1 4.5-4.75 5.5-1.65 0.99-4.46 1.8-6.25 1.81-1.79 0-4.38-0.45-5.75-1-1.46-0.58-3.32-2.77-4.48-5.25-1.09-2.34-1.98-5.37-1.99-6.75-0.01-1.37 0.49-4.3 1.1-6.5 0.62-2.2 2.6-5.46 4.4-7.25 2.39-2.38 4.17-3.25 6.62-3.24zm14.27 289.03c2.2 0.04 4.12 1.11 6.71 3.75 2.33 2.38 4.22 5.69 5.26 9.21 0.9 3.03 1.63 6.74 1.62 8.25-0.01 1.51-0.8 4.61-1.76 6.89-0.96 2.27-2.54 4.52-3.5 5-0.96 0.47-2.99 0.84-4.5 0.82-1.82-0.03-3.98-1.31-6.38-3.75-2.33-2.38-4.22-5.68-5.26-9.21-0.9-3.02-1.63-6.74-1.62-8.25 0.01-1.51 0.49-3.99 1.08-5.5 0.58-1.51 2.01-3.76 3.17-5 1.32-1.42 3.23-2.23 5.18-2.21z"/>
	</g>
</svg>